<?xml version="1.0" encoding="UTF-8" standalone="no"?><!DOCTYPE svg PUBLIC "-//W3C//DTD SVG 1.1//EN" "http://www.w3.org/Graphics/SVG/1.1/DTD/svg11.dtd"><svg width="100%" height="100%" viewBox="0 0 834 834" version="1.1" xmlns="http://www.w3.org/2000/svg" xmlns:xlink="http://www.w3.org/1999/xlink" xml:space="preserve" xmlns:serif="http://www.serif.com/" style="fill-rule:evenodd;clip-rule:evenodd;stroke-linejoin:round;stroke-miterlimit:2;"><path d="M833.333,207.583c0,-114.568 -93.014,-207.583 -207.582,-207.583l-418.168,0c-114.568,0 -207.583,93.015 -207.583,207.583l0,415.165c0,114.568 93.015,207.582 207.583,207.582l418.168,0c114.568,0 207.582,-93.014 207.582,-207.582l0,-415.165Z" style="fill:#509900;"/><path d="M791.291,206.832c0,-103.381 -83.932,-187.312 -187.312,-187.312l-374.625,0c-103.38,0 -187.312,83.931 -187.312,187.312l0,389.639c0,103.381 83.932,187.313 187.312,187.313l374.625,0c103.38,0 187.312,-83.932 187.312,-187.313l0,-389.639Z" style="fill:#fcd300;"/><path d="M719.219,241.366c0,-83.491 -67.784,-151.276 -151.276,-151.276l-302.553,0c-83.491,0 -151.276,67.785 -151.276,151.276l0,320.571c0,83.492 67.785,151.276 151.276,151.276l302.553,0c83.492,0 151.276,-67.784 151.276,-151.276l0,-320.571Z" style="fill:#fa9b00;"/><g transform="matrix(5.7958,0,0,5.7958,-453.325,21.8185)"><path d="M122.801,44.118c-0.094,-1.587 -0.141,-2.93 -0.141,-4.027c0,-1.097 0.047,-2.101 0.141,-3.012c0.094,-0.911 0.234,-1.658 0.422,-2.242c0.187,-0.584 0.48,-1.097 0.879,-1.541c0.398,-0.443 0.844,-0.782 1.336,-1.015c0.492,-0.234 1.113,-0.444 1.863,-0.631c0.75,-0.187 1.57,-0.338 2.461,-0.455c0.891,-0.116 1.922,-0.245 3.094,-0.385c0.422,-0.047 0.761,-0.081 1.019,-0.105c0.258,-0.023 0.586,-0.058 0.985,-0.105c0.398,-0.047 0.785,-0.094 1.16,-0.14c2.297,-0.28 5.062,-0.421 8.297,-0.421c3.468,0 7.5,0.164 12.093,0.49c5.719,0.421 10.782,2.27 15.188,5.547c4.406,3.278 7.523,7.515 9.352,12.713c0.984,2.762 1.476,5.595 1.476,8.499c0,2.456 -0.375,4.957 -1.125,7.503c-1.641,5.685 -4.465,10.097 -8.473,13.235c-4.007,3.138 -9.128,5.481 -15.363,7.028c-1.828,0.454 -3.703,0.796 -5.625,1.025c-0.797,0.093 -1.664,0.105 -2.601,0.035c-0.938,-0.071 -1.817,-0.173 -2.637,-0.308c-0.82,-0.135 -1.524,-0.045 -2.11,0.269c-0.585,0.314 -0.925,0.882 -1.019,1.703c0.047,0.836 0.07,1.672 0.07,2.507c-0.047,1.229 -0.117,2.458 -0.211,3.687c-0.187,2.065 -0.234,3.589 -0.14,4.572c0.187,2.212 0.093,3.625 -0.282,4.239c-0.375,0.615 -1.546,1.217 -3.515,1.806c-2.438,0.738 -5.086,1.107 -7.945,1.107c-0.469,0 -0.961,0 -1.477,0c-2.813,-0.145 -4.664,-0.649 -5.555,-1.514c-0.89,-0.865 -1.359,-2.691 -1.406,-5.479c0,-1.394 0.117,-7.714 0.352,-18.96c-0.047,0 -0.071,-5.72 -0.071,-17.16c-0.093,-8.097 -0.258,-14.252 -0.492,-18.465Zm19.899,12.111c0.046,0.376 0.07,0.917 0.07,1.623c0,0.707 0.023,1.224 0.07,1.554c0.375,2.495 0.938,4.037 1.688,4.625c0.75,0.588 2.507,0.906 5.273,0.954c0.188,0 0.399,0.023 0.633,0.07c1.781,0 4.125,-0.518 7.031,-1.553c1.735,-0.613 3.176,-1.601 4.324,-2.967c1.149,-1.365 1.746,-2.777 1.793,-4.236c0.047,-1.365 -0.562,-2.601 -1.828,-3.707c-1.265,-1.107 -2.765,-1.942 -4.5,-2.507c-3.422,-0.989 -6.047,-1.483 -7.875,-1.483l-0.211,0c-3,0.094 -4.922,0.636 -5.765,1.624c-0.563,0.706 -0.844,1.883 -0.844,3.531c0,0.706 0.047,1.53 0.141,2.472Z" style="fill:none;fill-rule:nonzero;stroke:#fcd300;stroke-width:16.73px;"/><g transform="matrix(144,0,0,144,116.192,104.922)"><path d="M0.046,-0.422c-0.001,-0.011 -0.001,-0.021 -0.001,-0.028c0,-0.008 0,-0.015 0.001,-0.021c0.001,-0.006 0.002,-0.012 0.003,-0.016c0.001,-0.004 0.003,-0.007 0.006,-0.01c0.003,-0.003 0.006,-0.006 0.009,-0.007c0.004,-0.002 0.008,-0.004 0.013,-0.005c0.005,-0.001 0.011,-0.002 0.017,-0.003c0.006,-0.001 0.014,-0.002 0.022,-0.003l0.022,-0.002c0.016,-0.002 0.035,-0.003 0.057,-0.003c0.024,0 0.052,0.001 0.084,0.003c0.04,0.003 0.075,0.016 0.106,0.039c0.03,0.023 0.052,0.052 0.065,0.088c0.007,0.019 0.01,0.039 0.01,0.059c0,0.017 -0.003,0.035 -0.008,0.052c-0.011,0.04 -0.031,0.07 -0.059,0.092c-0.028,0.022 -0.063,0.038 -0.106,0.049c-0.013,0.003 -0.026,0.006 -0.039,0.007c-0.006,0.001 -0.012,0.001 -0.019,0c-0.006,0 -0.012,-0.001 -0.018,-0.002c-0.006,-0.001 -0.01,0 -0.014,0.002c-0.005,0.002 -0.007,0.006 -0.008,0.012c0.001,0.006 0.001,0.012 0.001,0.017c0,0.009 -0.001,0.017 -0.002,0.026c-0.001,0.014 -0.001,0.025 0,0.032c0.001,0.015 0,0.025 -0.002,0.029c-0.003,0.004 -0.011,0.009 -0.025,0.013c-0.017,0.005 -0.035,0.007 -0.055,0.007c-0.003,0 -0.007,0 -0.01,0c-0.02,-0.001 -0.033,-0.004 -0.039,-0.01c-0.006,-0.006 -0.009,-0.019 -0.01,-0.038c0,-0.01 0.001,-0.054 0.003,-0.132c-0.001,0 -0.001,-0.04 -0.001,-0.119c0,-0.056 -0.001,-0.099 -0.003,-0.128Zm0.138,0.084l0.001,0.022c0.003,0.017 0.007,0.028 0.012,0.032c0.005,0.004 0.017,0.006 0.036,0.007c0.002,0 0.003,0 0.005,0c0.012,0 0.028,-0.003 0.049,-0.011c0.012,-0.004 0.022,-0.011 0.03,-0.02c0.008,-0.01 0.012,-0.02 0.012,-0.03c0,-0.009 -0.004,-0.018 -0.013,-0.025c-0.008,-0.008 -0.019,-0.014 -0.031,-0.018c-0.024,-0.007 -0.042,-0.01 -0.055,-0.01l-0.001,0c-0.021,0.001 -0.034,0.004 -0.04,0.011c-0.004,0.005 -0.006,0.013 -0.006,0.025c0,0.005 0,0.01 0.001,0.017Z" style="fill-rule:nonzero;"/></g></g></svg>